<svg xmlns="http://www.w3.org/2000/svg" width="24" height="24" viewBox="0 0 24 24"><g stroke="#000" stroke-linecap="round" stroke-linejoin="round" stroke-miterlimit="10" fill="none"><path d="M21.5 6.5c0 .551-.447 1-1 1h-19c-.553 0-1-.449-1-1v-5c0-.553.447-1 1-1h19c.553 0 1 .447 1 1v5zM8 5.5h10M8 3.5h10"/><circle cx="4" cy="4" r="1"/><path d="M21.5 13.5c0 .551-.447 1-1 1h-19c-.553 0-1-.449-1-1v-5c0-.553.447-1 1-1h19c.553 0 1 .447 1 1v5zM8 12.5h10M8 10.5h10"/><circle cx="4" cy="11" r="1"/><path d="M21.5 20.5c0 .551-.447 1-1 1h-19c-.553 0-1-.449-1-1v-5c0-.553.447-1 1-1h19c.553 0 1 .447 1 1v5zM8 19.5h10M8 17.5h10"/><circle cx="4" cy="18" r="1"/></g></svg>